<svg width="61" height="84" viewBox="0 0 61 84" fill="none" xmlns="http://www.w3.org/2000/svg">
<path d="M36.6876 25.7683C36.9836 26.5889 36.7665 38.002 36.7655 39.7221L36.7411 83.7989L24.6162 83.7932C24.7171 80.9139 24.6382 78.0069 24.6416 75.1242L24.6344 25.7184C26.5931 28.8056 28.801 31.7622 30.6694 34.9005C32.5568 31.7939 34.7446 28.8474 36.6876 25.7683Z" fill="#FEFEFE"/>
<path d="M0.0183566 24.0135L21.2927 24.0171C21.3673 29.1399 21.395 34.3013 21.2755 39.4227C14.1942 39.3094 7.10667 39.4572 0.0245735 39.3505C-0.00596794 34.2382 -0.0080404 29.1259 0.0183566 24.0135Z" fill="#FEFEFE"/>
<path d="M40.1182 24.009L60.9909 24.0178C60.8953 29.1243 61.0751 34.2383 60.9598 39.3453C54.0359 39.4553 47.0981 39.3716 40.1727 39.3864C40.0326 37.3057 40.0923 35.1993 40.0919 33.1137C40.0813 30.0787 40.0901 27.0438 40.1182 24.009Z" fill="#FEFEFE"/>
<path d="M24.6467 0.201103C28.6168 0.35016 32.6438 0.211146 36.6205 0.210907C36.7104 2.76085 36.8721 19.0724 36.4976 20.222C35.9936 21.7705 34.0153 24.2317 33.0923 25.7266C32.2899 26.9895 31.4573 28.2424 30.7348 29.5532C30.1327 28.326 29.281 27.1672 28.536 26.0211C27.2286 24.0292 25.9384 22.026 24.6654 20.0117C24.5229 17.2415 24.6352 14.4158 24.6372 11.6376C24.6395 7.82721 24.5726 4.01055 24.6467 0.201103Z" fill="#FEFEFE"/>
</svg>
